<?xml version="1.0" encoding="utf-8"?>
<!-- Generator: Adobe Illustrator 20.1.0, SVG Export Plug-In . SVG Version: 6.00 Build 0)  -->
<svg version="1.0" id="Слой_1" xmlns="http://www.w3.org/2000/svg" xmlns:xlink="http://www.w3.org/1999/xlink" x="0px" y="0px"
	 viewBox="0 0 200 200" style="enable-background:new 0 0 200 200;" xml:space="preserve">
<style type="text/css">
	.st0{fill:none;}
	.st1{fill:none;stroke:#F7F7F7;stroke-width:2;}
</style>
<g>
	<rect x="34.8" y="23.4" class="st0" width="134.5" height="152.5"/>
	<path class="st1" d="M112.3,72.8c-6.5-0.3-11.5-1.7-15.1-4.3c-3.5-2.6-5.3-6-5.3-10c0-7.4,5.7-13.5,17.1-18.3
		c-6.3,0-11.9-1.1-16.9-3.4c-5-2.3-7.5-4.9-7.5-7.9c0-1.2,0.5-2.3,1.5-3.4c1-1.1,2.1-1.6,3.2-1.6c1.7,0,3.3,0.8,4.8,2.5
		c4.2,5,11,7.6,20.2,7.6c4.3,0,9.9-1,16.8-3c1.2-0.3,2.3-0.5,3.2-0.5c2.1,0,3.2,1.2,3.2,3.7c0,3.1-1.4,4.9-4.1,5.4
		c-10,1.7-17.6,4.1-22.6,7.1c-5.1,3.1-7.6,6.5-7.6,10.2c0,3.5,2.2,6.2,6.6,8.1c4.4,1.8,10.4,2.8,18.2,2.8c1,0,1.8,0.5,2.5,1.4
		c0.7,0.9,1,1.8,1,2.7c0,0.8-0.5,1.8-1.5,2.9s-1.9,1.8-2.7,2c-27.9,5.4-41.8,14.8-41.8,28.2c0,5.8,5.2,10.7,15.7,14.9
		c10,4,17,7,21,9s7.1,4.6,9.3,7.7c2.2,3.1,3.4,6.5,3.4,10.2c0,4.5-1.6,9-4.7,13.8c-3.1,4.7-5.9,7.1-8.3,7.1c-0.9,0-1.6-0.3-2-1
		c-0.5-0.7-0.7-1.3-0.7-1.9c0-0.8,0.6-2.2,1.7-4.4c2.2-4.3,3.3-7.7,3.3-10.3c0-2.4-0.8-4.6-2.5-6.6c-1.6-2-3.9-3.8-6.8-5.3
		c-2.9-1.5-8.5-3.8-16.7-7c-10.5-3.9-17.4-7.8-20.8-11.5c-3.4-3.7-5.2-7.9-5.2-12.7C72,91.4,85.4,80.1,112.3,72.8z"/>
</g>
<g>
</g>
<g>
</g>
<g>
</g>
<g>
</g>
<g>
</g>
<g>
</g>
</svg>
